<svg version="1.1" id="Layer_1" xmlns="http://www.w3.org/2000/svg" xmlns:xlink="http://www.w3.org/1999/xlink" x="0px" y="0px"
	 width="100%" viewBox="0 0 1024 1024" enable-background="new 0 0 1024 1024" xml:space="preserve">
<path fill="#121212" opacity="1.000000" stroke="none" 
	d="
M328.000000,975.000000 
	C305.836151,975.000000 284.172180,975.048889 262.508484,974.988953 
	C227.376343,974.891785 193.974930,967.445862 162.849304,950.882324 
	C147.111832,942.507629 132.759445,932.205383 119.480843,920.178345 
	C99.239609,901.844910 83.412231,880.395996 71.513496,855.960205 
	C61.690613,835.787537 55.360191,814.516113 53.047035,792.189270 
	C51.903858,781.155151 51.092747,770.028992 51.084690,758.943726 
	C50.963234,591.798889 50.868610,424.653748 51.131294,257.509277 
	C51.174675,229.905502 56.910873,203.183197 68.073700,177.730316 
	C77.569702,156.078018 90.188599,136.627579 106.200539,119.149323 
	C138.339737,84.066948 177.803452,62.484802 224.464966,54.284245 
	C236.968414,52.086819 249.848175,51.149712 262.556946,51.134571 
	C431.201416,50.933647 599.846375,50.869667 768.490723,51.131233 
	C796.094421,51.174042 822.816772,56.910946 848.269653,68.073692 
	C869.922058,77.569672 889.372375,90.188591 906.850647,106.200546 
	C941.933044,138.339767 963.524292,177.801971 971.711609,224.465775 
	C973.933899,237.131851 974.850342,250.181503 974.865784,263.056915 
	C975.067688,431.534729 975.131042,600.013062 974.869080,768.490784 
	C974.826172,796.094360 969.089172,822.816833 957.926392,848.269714 
	C948.430359,869.922058 935.811401,889.372498 919.799500,906.850647 
	C887.660217,941.932800 848.196655,963.515442 801.535034,971.715820 
	C789.031616,973.913269 776.152100,974.846313 763.443115,974.864929 
	C618.462341,975.077393 473.481110,975.000000 328.000000,975.000000 
M509.500000,237.000000 
	C418.765930,237.000000 328.031860,237.000000 237.353424,237.000000 
	C237.353424,333.084564 237.353424,428.323334 237.353424,523.708557 
	C281.284119,523.708557 324.860931,523.708557 369.219604,523.708557 
	C369.219604,472.067993 369.219604,420.713501 369.219604,369.749878 
	C464.517578,369.749878 559.031738,369.749878 653.545837,369.749878 
	C653.725952,370.177795 653.906006,370.605743 654.086121,371.033661 
	C621.863831,403.350586 589.641602,435.667511 556.799622,468.605896 
	C634.894958,468.605896 711.769287,468.605896 788.672607,468.605896 
	C788.672607,391.304260 788.672607,314.397186 788.672607,237.000000 
	C695.730652,237.000000 603.115356,237.000000 509.500000,237.000000 
M789.000000,574.500000 
	C789.000000,550.410583 789.000000,526.321106 789.000000,502.362671 
	C744.618530,502.362671 700.889832,502.362671 656.725830,502.362671 
	C656.725830,553.987732 656.725830,605.250732 656.725830,656.426514 
	C561.224792,656.426514 466.162781,656.426514 371.100769,656.426514 
	C370.916321,656.053589 370.731873,655.680725 370.547424,655.307800 
	C402.931915,622.915588 435.316376,590.523376 468.555115,557.276733 
	C390.554260,557.276733 313.994629,557.276733 237.262573,557.276733 
	C237.262573,634.515076 237.262573,711.575684 237.262573,788.705872 
	C421.250031,788.705872 604.974731,788.705872 789.000000,788.705872 
	C789.000000,717.441406 789.000000,646.470703 789.000000,574.500000 
z"/>
<path fill="#14919B" opacity="1.000000" stroke="none" 
	d="
M510.000000,237.000000 
	C603.115356,237.000000 695.730652,237.000000 788.672607,237.000000 
	C788.672607,314.397186 788.672607,391.304260 788.672607,468.605896 
	C711.769287,468.605896 634.894958,468.605896 556.799622,468.605896 
	C589.641602,435.667511 621.863831,403.350586 654.086121,371.033661 
	C653.906006,370.605743 653.725952,370.177795 653.545837,369.749878 
	C559.031738,369.749878 464.517578,369.749878 369.219604,369.749878 
	C369.219604,420.713501 369.219604,472.067993 369.219604,523.708557 
	C324.860931,523.708557 281.284119,523.708557 237.353424,523.708557 
	C237.353424,428.323334 237.353424,333.084564 237.353424,237.000000 
	C328.031860,237.000000 418.765930,237.000000 510.000000,237.000000 
z"/>
<path fill="#FFFFFF" opacity="1.000000" stroke="none" 
	d="
M789.000000,575.000000 
	C789.000000,646.470703 789.000000,717.441406 789.000000,788.705872 
	C604.974731,788.705872 421.250031,788.705872 237.262573,788.705872 
	C237.262573,711.575684 237.262573,634.515076 237.262573,557.276733 
	C313.994629,557.276733 390.554260,557.276733 468.555115,557.276733 
	C435.316376,590.523376 402.931915,622.915588 370.547424,655.307800 
	C370.731873,655.680725 370.916321,656.053589 371.100769,656.426514 
	C466.162781,656.426514 561.224792,656.426514 656.725830,656.426514 
	C656.725830,605.250732 656.725830,553.987732 656.725830,502.362671 
	C700.889832,502.362671 744.618530,502.362671 789.000000,502.362671 
	C789.000000,526.321106 789.000000,550.410583 789.000000,575.000000 
z"/>
</svg>